<mxfile host="Electron" modified="2024-02-21T14:41:29.457Z" agent="Mozilla/5.0 (Windows NT 10.0; Win64; x64) AppleWebKit/537.36 (KHTML, like Gecko) draw.io/22.1.18 Chrome/120.0.6099.199 Electron/28.1.2 Safari/537.36" etag="8Em-_mbswhql6ZejljgM" version="22.1.18" type="device">
  <diagram name="Page-1" id="JlebeKp0q1MyXVypuITP">
    <mxGraphModel dx="1219" dy="713" grid="1" gridSize="10" guides="1" tooltips="1" connect="1" arrows="1" fold="1" page="1" pageScale="1" pageWidth="827" pageHeight="1169" math="0" shadow="0">
      <root>
        <mxCell id="0" />
        <mxCell id="1" parent="0" />
        <mxCell id="nIspJD36H5_5mw0G1FL0-5" style="edgeStyle=orthogonalEdgeStyle;rounded=0;orthogonalLoop=1;jettySize=auto;html=1;exitX=1;exitY=0.5;exitDx=0;exitDy=0;exitPerimeter=0;endArrow=oval;endFill=1;" edge="1" parent="1" source="nIspJD36H5_5mw0G1FL0-1">
          <mxGeometry relative="1" as="geometry">
            <mxPoint x="770" y="320.28571428571433" as="targetPoint" />
          </mxGeometry>
        </mxCell>
        <mxCell id="nIspJD36H5_5mw0G1FL0-6" style="edgeStyle=orthogonalEdgeStyle;rounded=0;orthogonalLoop=1;jettySize=auto;html=1;exitX=0;exitY=0.25;exitDx=0;exitDy=0;exitPerimeter=0;endArrow=oval;endFill=1;" edge="1" parent="1" source="nIspJD36H5_5mw0G1FL0-1">
          <mxGeometry relative="1" as="geometry">
            <mxPoint x="690" y="170" as="targetPoint" />
          </mxGeometry>
        </mxCell>
        <mxCell id="nIspJD36H5_5mw0G1FL0-1" value="" style="verticalLabelPosition=bottom;shadow=0;dashed=0;align=center;html=1;verticalAlign=top;shape=mxgraph.electrical.logic_gates.logic_gate;operation=or;negating=1;negSize=0.15;" vertex="1" parent="1">
          <mxGeometry x="590" y="290" width="100" height="60" as="geometry" />
        </mxCell>
        <mxCell id="nIspJD36H5_5mw0G1FL0-4" style="edgeStyle=orthogonalEdgeStyle;rounded=0;orthogonalLoop=1;jettySize=auto;html=1;exitX=1;exitY=0.5;exitDx=0;exitDy=0;exitPerimeter=0;endArrow=oval;endFill=1;" edge="1" parent="1" source="nIspJD36H5_5mw0G1FL0-2">
          <mxGeometry relative="1" as="geometry">
            <mxPoint x="760" y="170" as="targetPoint" />
          </mxGeometry>
        </mxCell>
        <mxCell id="nIspJD36H5_5mw0G1FL0-7" style="edgeStyle=orthogonalEdgeStyle;rounded=0;orthogonalLoop=1;jettySize=auto;html=1;exitX=0;exitY=0.75;exitDx=0;exitDy=0;exitPerimeter=0;endArrow=oval;endFill=1;" edge="1" parent="1" source="nIspJD36H5_5mw0G1FL0-2">
          <mxGeometry relative="1" as="geometry">
            <mxPoint x="690" y="320" as="targetPoint" />
            <Array as="points">
              <mxPoint x="580" y="185" />
              <mxPoint x="580" y="260" />
              <mxPoint x="691" y="260" />
              <mxPoint x="691" y="320" />
            </Array>
          </mxGeometry>
        </mxCell>
        <mxCell id="nIspJD36H5_5mw0G1FL0-2" value="" style="verticalLabelPosition=bottom;shadow=0;dashed=0;align=center;html=1;verticalAlign=top;shape=mxgraph.electrical.logic_gates.logic_gate;operation=or;negating=1;negSize=0.15;" vertex="1" parent="1">
          <mxGeometry x="590" y="140" width="100" height="60" as="geometry" />
        </mxCell>
        <mxCell id="nIspJD36H5_5mw0G1FL0-15" style="edgeStyle=orthogonalEdgeStyle;rounded=0;orthogonalLoop=1;jettySize=auto;html=1;exitX=0;exitY=0.75;exitDx=0;exitDy=0;exitPerimeter=0;endArrow=none;endFill=0;" edge="1" parent="1" source="nIspJD36H5_5mw0G1FL0-9">
          <mxGeometry relative="1" as="geometry">
            <mxPoint x="280" y="110" as="targetPoint" />
          </mxGeometry>
        </mxCell>
        <mxCell id="nIspJD36H5_5mw0G1FL0-19" value="D" style="edgeLabel;html=1;align=center;verticalAlign=middle;resizable=0;points=[];" vertex="1" connectable="0" parent="nIspJD36H5_5mw0G1FL0-15">
          <mxGeometry x="1" y="-2" relative="1" as="geometry">
            <mxPoint y="-1" as="offset" />
          </mxGeometry>
        </mxCell>
        <mxCell id="nIspJD36H5_5mw0G1FL0-9" value="" style="verticalLabelPosition=bottom;shadow=0;dashed=0;align=center;html=1;verticalAlign=top;shape=mxgraph.electrical.logic_gates.logic_gate;operation=or;negating=1;negSize=0.15;" vertex="1" parent="1">
          <mxGeometry x="420" y="330" width="100" height="60" as="geometry" />
        </mxCell>
        <mxCell id="nIspJD36H5_5mw0G1FL0-14" style="edgeStyle=orthogonalEdgeStyle;rounded=0;orthogonalLoop=1;jettySize=auto;html=1;exitX=0;exitY=0.25;exitDx=0;exitDy=0;exitPerimeter=0;endArrow=none;endFill=0;" edge="1" parent="1" source="nIspJD36H5_5mw0G1FL0-10">
          <mxGeometry relative="1" as="geometry">
            <mxPoint x="290" y="110" as="targetPoint" />
          </mxGeometry>
        </mxCell>
        <mxCell id="nIspJD36H5_5mw0G1FL0-10" value="" style="verticalLabelPosition=bottom;shadow=0;dashed=0;align=center;html=1;verticalAlign=top;shape=mxgraph.electrical.logic_gates.logic_gate;operation=or;negating=1;negSize=0.15;" vertex="1" parent="1">
          <mxGeometry x="420" y="90" width="100" height="60" as="geometry" />
        </mxCell>
        <mxCell id="nIspJD36H5_5mw0G1FL0-11" style="edgeStyle=orthogonalEdgeStyle;rounded=0;orthogonalLoop=1;jettySize=auto;html=1;exitX=0;exitY=0.25;exitDx=0;exitDy=0;exitPerimeter=0;entryX=0.966;entryY=0.499;entryDx=0;entryDy=0;entryPerimeter=0;endArrow=oval;endFill=1;" edge="1" parent="1" source="nIspJD36H5_5mw0G1FL0-2" target="nIspJD36H5_5mw0G1FL0-10">
          <mxGeometry relative="1" as="geometry" />
        </mxCell>
        <mxCell id="nIspJD36H5_5mw0G1FL0-12" style="edgeStyle=orthogonalEdgeStyle;rounded=0;orthogonalLoop=1;jettySize=auto;html=1;exitX=0;exitY=0.75;exitDx=0;exitDy=0;exitPerimeter=0;entryX=1;entryY=0.5;entryDx=0;entryDy=0;entryPerimeter=0;endArrow=oval;endFill=1;" edge="1" parent="1" source="nIspJD36H5_5mw0G1FL0-1" target="nIspJD36H5_5mw0G1FL0-9">
          <mxGeometry relative="1" as="geometry" />
        </mxCell>
        <mxCell id="nIspJD36H5_5mw0G1FL0-13" style="edgeStyle=orthogonalEdgeStyle;rounded=0;orthogonalLoop=1;jettySize=auto;html=1;exitX=0;exitY=0.25;exitDx=0;exitDy=0;exitPerimeter=0;entryX=0;entryY=0.75;entryDx=0;entryDy=0;entryPerimeter=0;" edge="1" parent="1" source="nIspJD36H5_5mw0G1FL0-9" target="nIspJD36H5_5mw0G1FL0-10">
          <mxGeometry relative="1" as="geometry" />
        </mxCell>
        <mxCell id="nIspJD36H5_5mw0G1FL0-17" value="" style="verticalLabelPosition=bottom;shadow=0;dashed=0;align=center;html=1;verticalAlign=top;shape=mxgraph.electrical.logic_gates.inverter_2" vertex="1" parent="1">
          <mxGeometry x="320" y="230" width="80" height="40" as="geometry" />
        </mxCell>
        <mxCell id="nIspJD36H5_5mw0G1FL0-18" value="En" style="text;html=1;align=center;verticalAlign=middle;resizable=0;points=[];autosize=1;strokeColor=none;fillColor=none;" vertex="1" parent="1">
          <mxGeometry x="290" y="238" width="40" height="30" as="geometry" />
        </mxCell>
        <mxCell id="nIspJD36H5_5mw0G1FL0-20" value="R" style="text;html=1;align=center;verticalAlign=middle;resizable=0;points=[];autosize=1;strokeColor=none;fillColor=none;" vertex="1" parent="1">
          <mxGeometry x="545" y="88" width="30" height="30" as="geometry" />
        </mxCell>
        <mxCell id="nIspJD36H5_5mw0G1FL0-21" value="S" style="text;html=1;align=center;verticalAlign=middle;resizable=0;points=[];autosize=1;strokeColor=none;fillColor=none;" vertex="1" parent="1">
          <mxGeometry x="525" y="368" width="30" height="30" as="geometry" />
        </mxCell>
        <mxCell id="nIspJD36H5_5mw0G1FL0-22" value="Q" style="text;html=1;align=center;verticalAlign=middle;resizable=0;points=[];autosize=1;strokeColor=none;fillColor=none;" vertex="1" parent="1">
          <mxGeometry x="765" y="158" width="30" height="30" as="geometry" />
        </mxCell>
        <mxCell id="nIspJD36H5_5mw0G1FL0-23" value="Q&#39;" style="text;html=1;align=center;verticalAlign=middle;resizable=0;points=[];autosize=1;strokeColor=none;fillColor=none;" vertex="1" parent="1">
          <mxGeometry x="770" y="308" width="40" height="30" as="geometry" />
        </mxCell>
      </root>
    </mxGraphModel>
  </diagram>
</mxfile>
